<?xml version="1.0" standalone="no"?><!DOCTYPE svg PUBLIC "-//W3C//DTD SVG 1.1//EN" "http://www.w3.org/Graphics/SVG/1.1/DTD/svg11.dtd"><svg t="1640257621217" class="icon" viewBox="0 0 1024 1024" version="1.1" xmlns="http://www.w3.org/2000/svg" p-id="36899" width="128" height="128" xmlns:xlink="http://www.w3.org/1999/xlink"><defs><style type="text/css"></style></defs><path d="M82.316 793.357a395.939 88.728 0 1 0 791.878 0 395.939 88.728 0 1 0-791.878 0Z" fill="#E5EEFA" opacity=".23" p-id="36900"></path><path d="M790.961 385.878l-346.792-48.156-1.01 183.405 346.846 38.316 0.956-173.565z" fill="#90B2FF" p-id="36901"></path><path d="M165.916 398.703l277.645-60.027v208.231l-277.645 60.027V398.703z" fill="#9CBFFF" p-id="36902"></path><path d="M489.807 468.114l300.81-83.192v393.306l-300.81 83.187V468.114z" fill="#C2DBFF" p-id="36903"></path><path d="M165.916 398.703l323.891 69.411v391.181l-323.891-78.793V398.703z" fill="#A1B9FF" p-id="36904"></path><path d="M489.807 467.508l-323.891-68.805-69.411 138.82 335.473 78.798 57.829-148.813z" fill="#A6CEFF" p-id="36905"></path><path d="M489.807 468.114l300.81-83.192 80.987 138.825-289.223 94.765-92.574-150.398z" fill="#CBE5FF" p-id="36906"></path><path d="M96.505 649.599m-33.277 0a33.277 33.277 0 1 0 66.554 0 33.277 33.277 0 1 0-66.554 0Z" fill="#A6CEFF" p-id="36907"></path><path d="M895.947 704.629m-21.754 0a21.754 21.754 0 1 0 43.508 0 21.754 21.754 0 1 0-43.508 0Z" fill="#CBE5FF" p-id="36908"></path><path d="M928.258 501.717m-32.31 0a32.31 32.31 0 1 0 64.62 0 32.31 32.31 0 1 0-64.62 0Z" fill="#B2D1FF" p-id="36909"></path><path d="M761.812 147.706a2.911 2.911 0 0 1-2.778-3.784c0.707-2.249 1.014-3.519 1.017-3.531a2.905 2.905 0 0 1 3.508-2.153 2.91 2.91 0 0 1 2.155 3.505c-0.014 0.058-0.35 1.457-1.125 3.925a2.916 2.916 0 0 1-2.777 2.038zM469.73 352.604a2.911 2.911 0 0 1-0.212-5.815 152.86 152.86 0 0 0 7.531-0.75 2.911 2.911 0 0 1 0.718 5.778c-2.631 0.327-5.261 0.589-7.818 0.779a3.252 3.252 0 0 1-0.219 0.008z m15.305-1.889a2.91 2.91 0 0 1-0.486-5.781c2.458-0.419 4.967-0.9 7.458-1.432a2.91 2.91 0 1 1 1.214 5.694 193.815 193.815 0 0 1-7.693 1.477 2.863 2.863 0 0 1-0.493 0.042z m15.09-3.21a2.911 2.911 0 0 1-0.715-5.733 209.823 209.823 0 0 0 7.339-2.008 2.91 2.91 0 1 1 1.637 5.587 216.493 216.493 0 0 1-7.543 2.064c-0.239 0.061-0.481 0.09-0.718 0.09z m14.809-4.334a2.912 2.912 0 0 1-0.914-5.676 229.404 229.404 0 0 0 7.193-2.512 2.912 2.912 0 0 1 2.009 5.465 240.33 240.33 0 0 1-7.375 2.575 2.883 2.883 0 0 1-0.913 0.148z m14.484-5.321a2.913 2.913 0 0 1-1.092-5.611c2.34-0.946 4.706-1.945 7.035-2.972a2.912 2.912 0 0 1 2.348 5.328 256.43 256.43 0 0 1-7.201 3.041 2.878 2.878 0 0 1-1.09 0.214z m14.136-6.226a2.911 2.911 0 0 1-1.256-5.538 256.204 256.204 0 0 0 6.828-3.388 2.91 2.91 0 1 1 2.666 5.175 260.48 260.48 0 0 1-6.986 3.466 2.887 2.887 0 0 1-1.252 0.285z m13.702-7.056a2.912 2.912 0 0 1-1.413-5.458 252.759 252.759 0 0 0 6.615-3.796 2.91 2.91 0 1 1 2.974 5.005 252.865 252.865 0 0 1-6.77 3.884c-0.445 0.247-0.93 0.365-1.406 0.365z m13.264-7.886a2.912 2.912 0 0 1-1.567-5.367 232.146 232.146 0 0 0 6.36-4.2 2.91 2.91 0 1 1 3.287 4.804 237.576 237.576 0 0 1-6.519 4.305 2.89 2.89 0 0 1-1.561 0.458z m12.732-8.717a2.911 2.911 0 0 1-1.726-5.257 214.13 214.13 0 0 0 6.053-4.616 2.91 2.91 0 1 1 3.613 4.564 217.813 217.813 0 0 1-6.219 4.743 2.89 2.89 0 0 1-1.721 0.566z m12.092-9.584a2.91 2.91 0 0 1-1.895-5.122 183.45 183.45 0 0 0 5.665-5.058 2.91 2.91 0 1 1 3.968 4.26 187.963 187.963 0 0 1-5.847 5.22c-0.547 0.47-1.22 0.7-1.891 0.7z m11.278-10.527a2.912 2.912 0 0 1-2.081-4.947 146.328 146.328 0 0 0 5.148-5.54 2.91 2.91 0 1 1 4.369 3.848 152.559 152.559 0 0 1-5.355 5.762 2.894 2.894 0 0 1-2.081 0.877z m-27.462-8.035c-0.055 0-0.11-0.001-0.166-0.005-2.916-0.163-5.644-0.526-8.106-1.079a2.912 2.912 0 0 1 1.276-5.681c2.151 0.482 4.56 0.801 7.157 0.946a2.911 2.911 0 0 1-0.161 5.819z m7.698-0.009a2.911 2.911 0 0 1-0.147-5.818 99.965 99.965 0 0 0 7.46-0.683 2.912 2.912 0 0 1 0.736 5.776c-2.746 0.35-5.402 0.593-7.896 0.722l-0.153 0.003z m15.294-1.903a2.912 2.912 0 0 1-0.527-5.774c2.378-0.44 4.875-0.962 7.423-1.55a2.911 2.911 0 0 1 1.308 5.673c-2.629 0.607-5.21 1.146-7.671 1.602a2.936 2.936 0 0 1-0.533 0.049z m14.649-1.636a2.912 2.912 0 0 1-2.511-4.381 2.912 2.912 0 0 1 2.144-3.149l0.264-0.07a103.315 103.315 0 0 0 2.231-3.175 2.911 2.911 0 0 1 5.273 1.088 2.911 2.911 0 0 1 1.229 5.674 260.986 260.986 0 0 1-5.267 1.505c-0.352 0.464-0.708 0.927-1.068 1.388a2.9 2.9 0 0 1-2.295 1.12z m-52.506-0.063c-0.465 0-0.937-0.112-1.375-0.348-2.778-1.494-5.069-3.409-6.81-5.694a2.91 2.91 0 1 1 4.633-3.528c1.232 1.619 2.893 2.997 4.933 4.094a2.911 2.911 0 0 1-1.381 5.476z m67.664-6.133a2.91 2.91 0 0 1-0.911-5.676c2.409-0.794 4.83-1.634 7.195-2.497a2.912 2.912 0 0 1 1.994 5.47c-2.422 0.883-4.9 1.743-7.367 2.556-0.302 0.1-0.609 0.147-0.911 0.147z m14.48-5.281a2.912 2.912 0 0 1-1.084-5.614 232.977 232.977 0 0 0 7.017-2.948 2.911 2.911 0 0 1 2.344 5.329 234.86 234.86 0 0 1-7.194 3.023c-0.355 0.143-0.722 0.21-1.083 0.21z m-91.084-0.472a2.911 2.911 0 0 1-2.854-2.356 24.955 24.955 0 0 1-0.439-4.725c0-1.252 0.086-2.554 0.254-3.872a2.92 2.92 0 0 1 3.257-2.519 2.911 2.911 0 0 1 2.519 3.257 24.678 24.678 0 0 0-0.207 3.131c0.001 1.269 0.112 2.486 0.332 3.617a2.911 2.911 0 0 1-2.862 3.467z m70.038-0.843a2.912 2.912 0 0 1-2.535-4.338 75.245 75.245 0 0 0 3.318-6.632 2.909 2.909 0 0 1 3.835-1.499 2.91 2.91 0 0 1 1.499 3.834 81.17 81.17 0 0 1-3.576 7.149 2.912 2.912 0 0 1-2.541 1.486z m35.155-4.892a2.91 2.91 0 0 1-1.264-5.535 221.046 221.046 0 0 0 6.798-3.414 2.911 2.911 0 1 1 2.703 5.156 224.853 224.853 0 0 1-6.978 3.505 2.907 2.907 0 0 1-1.259 0.288z m13.65-7.159a2.912 2.912 0 0 1-1.446-5.44 210.992 210.992 0 0 0 6.534-3.887 2.91 2.91 0 1 1 3.067 4.949 217.086 217.086 0 0 1-6.714 3.994 2.886 2.886 0 0 1-1.441 0.384z m-42.682-2.059a2.91 2.91 0 0 1-2.789-3.75 49.648 49.648 0 0 0 1.592-7.085 2.917 2.917 0 0 1 3.302-2.459 2.912 2.912 0 0 1 2.46 3.302 55.845 55.845 0 0 1-1.777 7.918 2.914 2.914 0 0 1-2.788 2.074z m-74.521-0.207a2.91 2.91 0 0 1-2.754-3.851c0.829-2.43 1.898-4.943 3.179-7.469a2.912 2.912 0 0 1 5.193 2.632c-1.158 2.284-2.121 4.544-2.862 6.717a2.915 2.915 0 0 1-2.756 1.971z m130.303-5.855a2.912 2.912 0 0 1-1.627-5.328 202.515 202.515 0 0 0 6.226-4.355 2.911 2.911 0 1 1 3.427 4.706 207.234 207.234 0 0 1-6.405 4.482 2.9 2.9 0 0 1-1.621 0.495z m-123.415-7.911a2.912 2.912 0 0 1-2.436-4.502 85.585 85.585 0 0 1 4.678-6.475 2.91 2.91 0 1 1 4.557 3.623c-1.565 1.97-3.032 4-4.357 6.032a2.91 2.91 0 0 1-2.442 1.322z m135.874-1.164a2.911 2.911 0 0 1-1.804-5.197c1.979-1.56 3.956-3.18 5.873-4.816a2.91 2.91 0 0 1 3.779 4.43 202.18 202.18 0 0 1-6.049 4.96 2.904 2.904 0 0 1-1.799 0.623z m-66.1-0.033a2.911 2.911 0 0 1-2.908-2.826 36.34 36.34 0 0 0-0.896-7.07 2.91 2.91 0 1 1 5.675-1.301c0.609 2.659 0.96 5.418 1.041 8.202a2.912 2.912 0 0 1-2.825 2.995h-0.087z m77.827-9.971a2.91 2.91 0 0 1-1.976-5.051 194.908 194.908 0 0 0 5.48-5.26 2.91 2.91 0 1 1 4.113 4.121 202.455 202.455 0 0 1-5.645 5.417 2.893 2.893 0 0 1-1.972 0.773z m-138.017-0.908a2.91 2.91 0 0 1-2.11-4.916 88.598 88.598 0 0 1 5.747-5.533 2.912 2.912 0 0 1 3.841 4.375 82.663 82.663 0 0 0-5.368 5.168 2.903 2.903 0 0 1-2.11 0.906z m56.762-4.049a2.911 2.911 0 0 1-2.655-1.714 36.976 36.976 0 0 0-1.363-2.713 28.293 28.293 0 0 0-2.182-3.373 2.91 2.91 0 1 1 4.641-3.516 34.054 34.054 0 0 1 2.633 4.067 42.458 42.458 0 0 1 1.578 3.14 2.911 2.911 0 0 1-2.652 4.109z m92.163-5.936a2.91 2.91 0 0 1-2.135-4.889 191.192 191.192 0 0 0 5.047-5.675 2.91 2.91 0 1 1 4.427 3.781 196.33 196.33 0 0 1-5.203 5.849 2.9 2.9 0 0 1-2.136 0.934z m-137.329-0.169a2.911 2.911 0 0 1-1.696-5.279 67.251 67.251 0 0 1 6.818-4.301 2.912 2.912 0 0 1 2.793 5.109 61.358 61.358 0 0 0-6.225 3.928 2.892 2.892 0 0 1-1.69 0.543z m35.75-5.855c-0.557 0-1.12-0.16-1.618-0.493a16.99 16.99 0 0 0-6.035-2.529 2.912 2.912 0 0 1-2.259-3.442 2.914 2.914 0 0 1 3.442-2.258 22.792 22.792 0 0 1 8.094 3.393 2.912 2.912 0 0 1-1.624 5.329z m-22.21-1.436a2.912 2.912 0 0 1-0.974-5.655c2.776-0.986 5.507-1.641 8.115-1.946a2.919 2.919 0 0 1 3.229 2.553 2.91 2.91 0 0 1-2.554 3.229c-2.175 0.254-4.477 0.81-6.842 1.65a2.891 2.891 0 0 1-0.974 0.169z m133.803-4.263a2.91 2.91 0 0 1-2.285-4.712 192.083 192.083 0 0 0 4.578-6.06 2.91 2.91 0 1 1 4.714 3.414 195.925 195.925 0 0 1-4.719 6.248 2.902 2.902 0 0 1-2.288 1.11z m9.046-12.491a2.911 2.911 0 0 1-2.421-4.522 185.066 185.066 0 0 0 4.073-6.411 2.912 2.912 0 0 1 4.977 3.021 194.211 194.211 0 0 1-4.2 6.611 2.912 2.912 0 0 1-2.429 1.301z m8.003-13.187a2.911 2.911 0 0 1-2.546-4.317 177.29 177.29 0 0 0 3.521-6.724 2.912 2.912 0 0 1 5.215 2.589 181.735 181.735 0 0 1-3.639 6.946 2.908 2.908 0 0 1-2.551 1.506z m6.858-13.821a2.91 2.91 0 0 1-2.661-4.088 155.545 155.545 0 0 0 2.892-7.001 2.911 2.911 0 0 1 5.436 2.086 160.532 160.532 0 0 1-3.001 7.267 2.914 2.914 0 0 1-2.666 1.736zM459.352 352.998c-0.43 0-0.858-0.002-1.287-0.006a2.912 2.912 0 0 1-2.885-2.938 2.904 2.904 0 0 1 2.938-2.885c1.259 0.012 2.525 0.006 3.797-0.02 1.626-0.012 2.937 1.245 2.969 2.853a2.912 2.912 0 0 1-2.853 2.969c-0.896 0.018-1.789 0.027-2.679 0.027z" fill="#FFB052" p-id="36910"></path><path d="M414.397 338.953s-23.167 8.813-28.396 8.621c-5.23-0.192 31.775 5.137 32.294 0.822 0.519-4.315-3.898-9.443-3.898-9.443z" fill="#FFDD93" p-id="36911"></path><path d="M402.983 325.645c-2.04-4.425-27.272-51.652-119.619 11.871 0 0 80.656 60.921 116.236 43.534 0 0 18.805-25.315-7.187-33.039-0.001 0 12.61-17.941 10.57-22.366z" fill="#FFDD93" p-id="36912"></path><path d="M390.018 345.244s-48.522 3.679-94.75-6.581c0 0 71.947 19.41 94.75 6.581z" fill="#EDB340" p-id="36913"></path></svg>