<svg xmlns="http://www.w3.org/2000/svg" width="245" height="191.414" viewBox="0 0 245 191.414">
    <g transform="translate(589.327 -524.46)">
        <path d="M-519.682,728.63h107.275c28.832,0,54.566-19.483,64.333-48.706h0a77.111,77.111,0,0,0,3.589-19.942,97.139,97.139,0,0,0-67.765-98.121c-17.649-5.513-36.913-11.379-42.108-12.389a66.494,66.494,0,0,0-25.232-.092c-7.239,1.226-26.606,6.791-44.361,12.112-44.76,13.414-72.685,59.1-63.7,105.61a79.257,79.257,0,0,0,3.8,13.482l1.035,2.681C-572.2,710.733-547.3,728.63-519.682,728.63Z"
              transform="translate(0 -12.755)" fill="#d0fcfc" opacity="0.35"/>
        <g transform="translate(-562.622 692.48)" opacity="0.4">
            <path d="M-331.256,910.846l-16.112-.007-57.235-.025-84.079-.037a3.025,3.025,0,0,0-2.152.9,3.083,3.083,0,0,0-.9,2.171,3.073,3.073,0,0,0,3.046,3.083l22.974.01a3.071,3.071,0,0,1,3.041,3.079,3.093,3.093,0,0,1-.9,2.176c-.552.558-1.312.476-2.148.476L-482,922.667c0,.034-2.256-.335-2.256,3.186,0,2.774,1.358,3.4,3.034,3.4l68.151.03h0l59.641.026a3.017,3.017,0,0,0,2.152-.9,3.089,3.089,0,0,0,.9-2.176c0-2.458-1.369-3.507-3.045-3.508l-4.335,0c-1.676,0-3.046-.959-3.046-2.654a3.085,3.085,0,0,1,.9-2.171,3.025,3.025,0,0,1,2.152-.9l3.891,0,22.605.01a3.017,3.017,0,0,0,2.152-.9,3.087,3.087,0,0,0,.9-2.176A3.072,3.072,0,0,0-331.256,910.846Z"
                  transform="translate(506.913 -910.776)" fill="#7adadd"/>
            <path d="M-509.3,941.551a4.288,4.288,0,0,1-.906,2.641,3.069,3.069,0,0,1-2.176.906h-11.646a3.09,3.09,0,0,1-3.082-3.082,4.285,4.285,0,0,1,.906-2.637,3.077,3.077,0,0,1,2.176-.906h11.646A3.089,3.089,0,0,1-509.3,941.551Z"
                  transform="translate(527.105 -926.586)" fill="#7adadd"/>
            <path d="M-136.477,941.634a3.014,3.014,0,0,1-.906,2.605,3.069,3.069,0,0,1-2.176.906h-5.236c-1.7,0-3.082-1.815-3.082-3.511a3.066,3.066,0,0,1,.906-2.172,3.076,3.076,0,0,1,2.176-.906h5.236A3.089,3.089,0,0,1-136.477,941.634Z"
                  transform="translate(308.769 -926.634)" fill="#7adadd"/>
            <path d="M-91.063,913.8a2.7,2.7,0,0,1-.906,2.423,3.188,3.188,0,0,1-2.176.842h-.73a3.336,3.336,0,0,1-3.082-3.265,2.758,2.758,0,0,1,.906-2.02,3.2,3.2,0,0,1,2.176-.842h.73A2.987,2.987,0,0,1-91.063,913.8Z"
                  transform="translate(280.275 -910.868)" fill="#7adadd"/>
        </g>
        <circle cx="3.039" cy="3.039" r="3.039" transform="translate(-549.14 587.324)" fill="none" stroke="#7adadd"
                stroke-miterlimit="10" stroke-width="2"/>
        <circle cx="3.039" cy="3.039" r="3.039" transform="translate(-484.248 565.782)" fill="none" stroke="#7adadd"
                stroke-miterlimit="10" stroke-width="2"/>
        <circle cx="3.039" cy="3.039" r="3.039" transform="translate(-407.693 568.845)" fill="none" stroke="#7adadd"
                stroke-miterlimit="10" stroke-width="2"/>
        <circle cx="3.439" cy="3.439" r="3.439" transform="translate(-497.007 536.752)" fill="#7adadd"/>
        <circle cx="3.439" cy="3.439" r="3.439" transform="translate(-463.263 593.118)" fill="#7adadd" opacity="0.5"/>
        <circle cx="3.439" cy="3.439" r="3.439" transform="translate(-424.631 586.997)" fill="#7adadd"/>
        <circle cx="3.439" cy="3.439" r="3.439" transform="translate(-459.851 550.487)" fill="#7adadd"/>
        <circle cx="1.72" cy="1.72" r="1.72" transform="translate(-502.962 590.453)" fill="#7adadd"/>
        <circle cx="1.72" cy="1.72" r="1.72" transform="translate(-399.241 642.021)" fill="#7adadd"/>
        <circle cx="1.72" cy="1.72" r="1.72" transform="translate(-453.405 573.232)" fill="#7adadd"/>
        <circle cx="1.72" cy="1.72" r="1.72" transform="translate(-383.312 595.555)" fill="#7adadd" opacity="0.5"/>
        <circle cx="1.72" cy="1.72" r="1.72" transform="translate(-436.428 607.846)" fill="#7adadd"/>
        <circle cx="3.439" cy="3.439" r="3.439" transform="translate(-524.713 600.764)" fill="#7adadd" opacity="0.5"/>
        <path d="M-421.57,788.918l.421,29.423,11.68,8.828,81.7,2.7,7.483-16.64,1.72,1.762-.021-18.5Z"
              transform="translate(-96.692 -149.07)" fill="#7adadd"/>
        <path d="M-255.785,856.216l4.549-.945,4.852,3.607,1.139,3.932,6.7,15.3h-19.439Z"
              transform="translate(-190.302 -186.613)" fill="#b7f5f7"/>
        <g transform="translate(-518.1 622.46)">
            <path d="M-421.19,839.84v24.992a3.875,3.875,0,0,0,3.811,3.914h68.434" transform="translate(421.19 -800.265)"
                  fill="#7adadd" stroke="#477070" stroke-linecap="round" stroke-linejoin="round" stroke-width="2"/>
            <path d="M-218.71,863.934h12.125a3.851,3.851,0,0,0,3.721-3.064,3.937,3.937,0,0,0,.09-.85V831.41"
                  transform="translate(305.612 -795.453)" fill="#7adadd" stroke="#477070" stroke-linecap="round"
                  stroke-linejoin="round" stroke-width="2"/>
            <path d="M-318.353,778.278V751.544c0-.137-.009-.283-.021-.421a3.863,3.863,0,0,0-3.073-3.412,3.06,3.06,0,0,0-.442-.069c-.09-.009-.18-.013-.275-.013h-95.215c-.1,0-.2,0-.3.013a3.818,3.818,0,0,0-3.253,2.511,3.759,3.759,0,0,0-.258,1.391v18.545"
                  transform="translate(421.19 -747.63)" fill="#7adadd" stroke="#477070" stroke-linecap="round"
                  stroke-linejoin="round" stroke-width="2"/>
            <path d="M-242.09,907.19h2.876" transform="translate(318.957 -838.709)" fill="none" stroke="#477070"
                  stroke-linecap="round" stroke-linejoin="round" stroke-width="2"/>
            <line y1="3.326" transform="translate(0 30.936)" stroke-width="2" stroke="#477070" stroke-linecap="round"
                  stroke-linejoin="round" fill="none"/>
            <path d="M-242.09,907.19h2.876" transform="translate(318.957 -838.709)" fill="none" stroke="#477070"
                  stroke-linecap="round" stroke-linejoin="round" stroke-width="2"/>
            <path d="M-348.6,853.845h-68.2c-1.961,0-3.579-1.833-3.79-4.167l22.107-15.79,9.657-6.893,1.781-1.27,8.614-6.154,7.288-5.2a3.219,3.219,0,0,1,3.884.039l7.069,5.232,15.459,11.438"
                  transform="translate(420.848 -785.364)" fill="#b7f5f7" stroke="#477070" stroke-linecap="round"
                  stroke-linejoin="round" stroke-width="2"/>
            <path d="M-233.91,861.49l22.369,16.549.069.052a3.914,3.914,0,0,1-3.549,3.013h-12.365"
                  transform="translate(314.288 -812.623)" fill="#b7f5f7" stroke="#477070" stroke-linecap="round"
                  stroke-linejoin="round" stroke-width="2"/>
            <path d="M-342.56,769.313l24.528-17.511a4.439,4.439,0,0,0-3.073-4.09,3.061,3.061,0,0,0-.442-.069c-.09-.009-.185-.013-.275-.013h-95.215c-.1,0-.2,0-.3.013a4.01,4.01,0,0,0-3.253,3l29.481,21.816,12.678,9.378,7.069,5.232a3.213,3.213,0,0,0,3.884.039l7.288-5.2,8.8-6.283,4.515-3.223"
                  transform="translate(420.848 -747.63)" fill="#b7f5f7" stroke="#477070" stroke-linecap="round"
                  stroke-linejoin="round" stroke-width="2"/>
        </g>
        <circle cx="13.627" cy="13.627" r="13.627" transform="translate(-434.851 616.571)" fill="#fcfcfa"
                stroke="#477070" stroke-miterlimit="10" stroke-width="2"/>
        <text transform="translate(-425.922 635.675)" fill="#477070" font-size="15" font-family="SegoeUI, Segoe UI, Roboto Regular, Roboto, sans-serif">
            <tspan x="0" y="0">0</tspan>
        </text>
        <g transform="translate(-541.275 626.701)">
            <line y1="5.46" x2="5.46" transform="translate(0 0)" stroke-width="2" stroke="#7adadd"
                  stroke-linecap="round" stroke-linejoin="round" fill="#7adadd"/>
            <line x2="5.46" y2="5.46" transform="translate(0 0)" stroke-width="2" stroke="#7adadd"
                  stroke-linecap="round" stroke-linejoin="round" fill="#7adadd"/>
        </g>
        <g transform="translate(-485.069 603.97)" opacity="0.5">
            <line x2="7.722" transform="translate(0 3.861)" stroke-width="2" stroke="#7adadd" stroke-linecap="round"
                  stroke-linejoin="round" fill="#7adadd"/>
            <line y2="7.722" transform="translate(3.861)" stroke-width="2" stroke="#7adadd" stroke-linecap="round"
                  stroke-linejoin="round" fill="#7adadd"/>
        </g>
        <g transform="translate(-521.302 561.066)">
            <line y1="7.722" transform="translate(3.861)" stroke-width="2" stroke="#7adadd" stroke-linecap="round"
                  stroke-linejoin="round" fill="#7adadd"/>
            <line x2="7.722" transform="translate(0 3.861)" stroke-width="2" stroke="#7adadd" stroke-linecap="round"
                  stroke-linejoin="round" fill="#7adadd"/>
        </g>
        <g transform="translate(-469.697 525.874)">
            <line y1="5.46" x2="5.46" transform="translate(0)" stroke-width="2" stroke="#7adadd" stroke-linecap="round"
                  stroke-linejoin="round" fill="#7adadd"/>
            <line x2="5.46" y2="5.46" transform="translate(0)" stroke-width="2" stroke="#7adadd" stroke-linecap="round"
                  stroke-linejoin="round" fill="#7adadd"/>
        </g>
        <g transform="translate(-398.55 606.835)">
            <line y1="5.46" x2="5.46" transform="translate(0)" stroke-width="2" stroke="#7adadd" stroke-linecap="round"
                  stroke-linejoin="round" fill="#7adadd"/>
            <line x2="5.46" y2="5.46" transform="translate(0)" stroke-width="2" stroke="#7adadd" stroke-linecap="round"
                  stroke-linejoin="round" fill="#7adadd"/>
        </g>
        <g transform="translate(-437.441 554.635)" opacity="0.5">
            <line y1="5.46" x2="5.46" transform="translate(0 0)" stroke-width="2" stroke="#7adadd"
                  stroke-linecap="round" stroke-linejoin="round" fill="#7adadd"/>
            <line x2="5.46" y2="5.46" transform="translate(0 0)" stroke-width="2" stroke="#7adadd"
                  stroke-linecap="round" stroke-linejoin="round" fill="#7adadd"/>
        </g>
        <path d="M-241.887,907.19h-2.577" transform="translate(-197.994 -216.249)" fill="#b7f5f7" stroke="#477070"
              stroke-linecap="round" stroke-linejoin="round" stroke-width="3"/>
    </g>
</svg>
