<?xml version="1.0" standalone="no"?><!DOCTYPE svg PUBLIC "-//W3C//DTD SVG 1.1//EN" "http://www.w3.org/Graphics/SVG/1.1/DTD/svg11.dtd"><svg t="1644462336827" class="icon" viewBox="0 0 2409 1024" version="1.1" xmlns="http://www.w3.org/2000/svg" p-id="35929" width="37.640625" height="16" xmlns:xlink="http://www.w3.org/1999/xlink"><defs><style type="text/css"></style></defs><path d="M2288.941176 1024H120.470588a120.470588 120.470588 0 0 1-120.470588-120.470588V120.470588a120.470588 120.470588 0 0 1 120.470588-120.470588h2168.470588a120.470588 120.470588 0 0 1 120.470589 120.470588v783.058824a120.470588 120.470588 0 0 1-120.470589 120.470588zM781.492706 455.439059c0-136.914824-62.704941-204.378353-186.127059-204.378353-30.840471 0-58.789647 5.782588-83.847529 19.275294a191.548235 191.548235 0 0 0-66.56 55.958588V264.553412H342.799059v498.447059h102.159059V463.149176c3.855059-40.478118 18.371765-72.282353 41.502117-95.412705a103.966118 103.966118 0 0 1 76.137412-30.840471c77.161412 0 116.675765 42.405647 116.675765 127.216941v298.88753h102.219294V455.439059z m513.626353-121.434353c-42.405647-55.958588-105.050353-82.944-186.066824-82.944-73.306353 0-132.096 25.057882-174.501647 76.197647-44.333176 50.115765-65.596235 111.796706-65.596235 186.066823 0 81.92 23.190588 146.552471 69.451294 194.740706 42.405647 45.296941 101.255529 68.487529 174.501647 68.48753 66.499765 0 121.494588-19.335529 164.864-56.922353 34.695529-30.840471 56.862118-70.354824 68.48753-116.675765h-102.219295c-13.492706 28.973176-27.949176 51.139765-45.296941 64.632471-22.226824 16.384-51.139765 25.057882-86.799059 25.057882-40.478118 0-72.282353-13.492706-95.472941-38.550588-23.130353-26.021647-35.659294-63.668706-39.514353-111.856941h377.976471c-0.963765-88.726588-21.263059-158.117647-59.813647-208.233412z m715.173647-69.451294l-105.050353 377.012706-102.219294-377.012706h-94.509177l-102.159058 377.012706-105.110589-377.012706H1388.423529l168.719059 498.447059h94.509177l104.146823-373.097412 104.086588 373.097412h94.509177l168.719059-498.447059h-112.820706zM1111.943529 334.968471c81.016471 0 126.313412 43.369412 135.951059 130.108235h-269.010823c5.782588-42.405647 20.239059-74.209882 41.441882-96.376471 23.190588-23.130353 53.067294-33.731765 91.617882-33.731764z" fill="#d81e06" p-id="35930"></path></svg>