<?xml version="1.0" standalone="no"?><!DOCTYPE svg PUBLIC "-//W3C//DTD SVG 1.1//EN" "http://www.w3.org/Graphics/SVG/1.1/DTD/svg11.dtd"><svg t="1640399294568" class="icon" viewBox="0 0 1024 1024" version="1.1" xmlns="http://www.w3.org/2000/svg" p-id="8117" width="64" height="64" xmlns:xlink="http://www.w3.org/1999/xlink"><defs><style type="text/css"></style></defs><path d="M512 512m-512 0a512 512 0 1 0 1024 0 512 512 0 1 0-1024 0Z" fill="#4079BD" p-id="8118"></path><path d="M537.6 345.6l134.4 134.4c12.8 12.8 25.6 12.8 38.4 0 12.8-12.8 12.8-25.6 0-38.4L531.2 262.4C524.8 256 518.4 256 512 256c-6.4 0-12.8 0-19.2 6.4L313.6 441.6c-12.8 12.8-12.8 25.6 0 38.4s25.6 12.8 38.4 0l134.4-134.4v403.2c0 6.4 12.8 19.2 25.6 19.2s25.6-12.8 25.6-25.6V345.6z" fill="#FFFFFF" p-id="8119"></path></svg>